<mxfile host="app.diagrams.net" modified="2024-04-10T07:34:55.069Z" agent="Mozilla/5.0 (Windows NT 10.0; Win64; x64) AppleWebKit/537.36 (KHTML, like Gecko) Chrome/123.0.0.0 Safari/537.36" version="24.2.2" etag="qjqSgfGd0c-BwYG1EMcj" type="github">
  <diagram name="第 1 页" id="g_HDyUwrOJ3oTxygOwaM">
    <mxGraphModel>
      <root>
        <mxCell id="0" />
        <mxCell id="1" parent="0" />
      </root>
    </mxGraphModel>
  </diagram>
</mxfile>
